<?xml version="1.0" encoding="UTF-8" ?>
<!DOCTYPE svg PUBLIC "-//W3C//DTD SVG 1.1//EN" "http://www.w3.org/Graphics/SVG/1.1/DTD/svg11.dtd">
<svg width="1157pt" height="696pt" viewBox="0 0 1157 696" version="1.1" xmlns="http://www.w3.org/2000/svg">
<g id="#ffffffff">
<path fill="#ffffff" opacity="1.00" d=" M 564.35 0.00 L 573.50 0.00 C 587.52 0.94 601.58 2.66 615.04 6.84 C 643.27 15.32 669.20 32.23 687.43 55.52 C 700.50 72.51 708.90 92.87 712.51 113.96 C 714.94 127.17 714.03 140.63 714.20 153.98 C 714.21 213.66 714.39 273.34 714.20 333.02 C 666.30 328.28 617.79 328.24 570.12 335.35 C 528.65 341.41 487.90 353.14 450.19 371.55 C 445.81 368.66 440.84 366.64 436.92 363.08 C 429.96 356.88 425.14 348.22 423.79 338.98 C 423.18 331.97 423.72 324.91 423.45 317.89 C 423.35 255.31 423.49 192.73 423.56 130.15 C 424.98 101.00 435.72 72.01 454.90 49.86 C 474.77 27.30 501.95 11.45 531.15 4.53 C 542.03 1.90 553.20 0.75 564.35 0.00 M 548.70 17.96 C 532.02 20.58 515.93 26.61 501.48 35.32 C 484.06 45.99 467.96 59.85 457.99 77.95 C 448.85 94.38 443.61 113.20 444.10 132.06 C 444.12 162.08 444.08 192.09 444.12 222.11 C 443.77 227.23 449.28 230.96 454.03 230.49 C 530.67 230.49 607.32 230.50 683.96 230.49 C 688.73 230.86 693.87 227.08 693.62 222.02 C 693.63 190.02 693.65 158.02 693.61 126.02 C 692.45 97.21 679.02 68.94 656.88 50.35 C 642.75 38.14 626.35 28.43 608.56 22.66 C 589.35 16.37 568.66 14.92 548.70 17.96 M 442.69 257.65 C 526.68 257.65 610.66 257.65 694.65 257.65 C 694.58 254.80 694.80 251.94 694.47 249.12 C 693.82 246.80 691.31 245.41 688.99 245.71 C 608.22 245.76 527.44 245.65 446.66 245.76 C 441.19 247.00 442.98 253.59 442.69 257.65 Z" />
<path fill="#ffffff" opacity="1.00" d=" M 546.11 31.24 C 566.23 27.12 587.42 28.53 606.85 35.15 C 624.43 41.13 640.44 51.33 653.87 64.10 C 671.71 81.74 681.95 106.91 681.17 132.02 C 681.18 158.02 681.16 184.02 681.18 210.02 C 681.60 214.43 677.32 218.11 673.08 217.86 C 646.94 217.92 620.80 217.86 594.66 217.89 C 594.61 210.86 594.75 203.82 594.58 196.79 C 578.30 196.85 562.02 196.80 545.74 196.82 C 545.72 203.84 545.73 210.86 545.73 217.88 C 519.14 217.88 492.54 217.89 465.94 217.88 C 461.51 218.35 456.79 214.65 457.29 209.98 C 457.32 181.96 457.23 153.95 457.33 125.93 C 458.40 103.30 467.85 80.99 483.87 64.88 C 500.90 48.15 522.63 35.94 546.11 31.24 M 518.17 146.78 C 518.68 161.63 524.43 177.36 537.04 186.09 C 539.77 187.76 542.57 190.06 545.97 189.83 C 562.88 189.71 579.81 189.99 596.72 189.69 C 601.43 187.85 605.61 184.80 609.09 181.16 C 617.94 172.04 621.66 159.19 622.34 146.77 C 587.62 146.76 552.89 146.76 518.17 146.78 Z" />
<path fill="#ffffff" opacity="1.00" d=" M 24.00 437.96 C 39.49 423.44 60.86 415.85 82.00 416.19 C 100.93 416.39 120.32 420.58 136.52 430.68 C 137.79 439.44 138.91 448.23 140.27 456.98 C 140.52 458.54 140.55 460.12 140.36 461.71 C 139.98 461.36 139.21 460.66 138.83 460.32 C 137.41 456.65 136.35 452.82 134.30 449.42 C 127.63 437.28 115.11 429.48 102.16 425.45 C 85.19 420.50 66.04 421.78 50.50 430.52 C 35.24 439.29 23.78 454.33 19.14 471.29 C 15.86 483.23 15.46 495.91 17.40 508.12 C 20.45 527.37 31.97 545.13 48.44 555.59 C 60.46 563.17 74.93 566.14 89.01 565.69 C 106.24 565.50 123.70 559.34 136.08 547.12 C 148.08 535.98 154.89 520.17 156.97 504.11 C 157.93 498.95 157.47 493.67 158.28 488.50 C 158.76 488.60 159.74 488.78 160.23 488.87 C 160.93 506.23 158.49 524.32 149.64 539.55 C 141.94 553.00 129.06 563.32 114.27 567.95 C 99.47 572.64 83.53 573.28 68.24 570.90 C 47.35 567.54 27.25 556.62 14.67 539.37 C 5.47 527.12 0.90 511.96 0.00 496.78 L 0.00 490.58 C 0.43 486.37 0.97 482.16 1.76 478.01 C 4.70 462.76 12.68 448.57 24.00 437.96 Z" />
<path fill="#ffffff" opacity="1.00" d=" M 255.23 416.32 C 273.12 415.41 291.73 418.41 307.19 427.88 C 323.21 437.50 335.56 453.32 340.09 471.54 C 343.90 487.00 343.79 503.52 339.51 518.87 C 333.93 538.84 318.87 555.51 300.19 564.21 C 284.02 571.68 265.64 573.47 248.07 571.46 C 232.09 569.74 216.44 563.56 204.31 552.90 C 191.24 541.82 182.60 525.85 180.17 508.91 C 177.91 492.69 178.96 475.58 185.65 460.46 C 192.48 444.88 205.27 432.20 220.47 424.71 C 231.27 419.43 243.25 416.80 255.23 416.32 M 253.00 422.98 C 238.96 424.19 225.21 430.13 215.39 440.35 C 203.89 451.65 197.56 467.43 196.07 483.33 C 194.46 499.59 196.08 516.66 203.48 531.43 C 210.82 546.24 224.13 558.29 240.14 562.86 C 254.08 566.89 269.29 566.77 283.12 562.37 C 300.14 556.94 313.78 543.08 320.37 526.64 C 326.52 511.29 327.37 494.19 324.90 477.96 C 322.19 460.29 312.71 443.38 297.80 433.21 C 284.87 424.20 268.46 421.46 253.00 422.98 Z" />
<path fill="#ffffff" opacity="1.00" d=" M 539.51 416.88 C 556.40 415.17 574.01 416.34 589.74 423.17 C 609.01 431.42 624.81 448.07 630.84 468.28 C 635.48 483.72 635.63 500.43 631.96 516.09 C 627.53 534.78 614.86 551.02 598.41 560.74 C 584.77 568.93 568.70 572.17 552.93 572.24 C 536.29 572.26 519.27 568.73 505.11 559.68 C 489.46 549.85 477.54 534.03 473.27 515.97 C 469.40 499.42 469.80 481.70 475.31 465.57 C 481.60 447.33 495.89 432.33 513.27 424.19 C 521.51 420.25 530.47 418.01 539.51 416.88 M 544.91 422.96 C 530.37 424.14 516.19 430.49 506.20 441.21 C 495.34 452.39 489.34 467.59 487.76 482.95 C 486.21 499.23 487.66 516.31 495.02 531.13 C 502.36 546.20 515.91 558.41 532.17 562.97 C 546.07 566.87 561.21 566.75 574.97 562.31 C 591.11 557.13 604.21 544.34 611.05 528.98 C 617.91 513.74 618.97 496.47 616.90 480.07 C 614.61 461.88 605.28 444.28 590.11 433.65 C 577.15 424.36 560.56 421.46 544.91 422.96 Z" />
<path fill="#ffffff" opacity="1.00" d=" M 667.49 415.73 C 668.86 415.64 669.97 416.12 670.82 417.17 C 709.07 458.33 747.37 499.44 785.60 540.61 C 785.69 505.38 785.61 470.16 785.64 434.93 C 785.84 429.55 782.39 424.37 777.47 422.27 C 774.59 420.98 771.33 421.36 768.28 421.28 C 768.35 420.75 768.50 419.70 768.57 419.17 C 783.15 419.11 797.73 419.16 812.30 419.14 C 812.31 419.68 812.33 420.74 812.34 421.27 C 809.19 421.35 805.82 421.00 802.93 422.50 C 798.58 424.60 795.32 429.12 795.30 434.03 C 795.25 461.68 795.29 489.34 795.28 516.99 C 795.50 535.43 794.38 554.00 797.23 572.31 C 795.61 572.76 794.55 571.49 793.59 570.50 C 755.57 529.42 717.28 488.59 679.31 447.47 C 679.18 483.00 679.28 518.54 679.26 554.07 C 678.97 560.20 683.98 566.01 690.02 566.82 C 692.12 567.69 696.96 565.52 696.33 569.22 C 681.66 569.21 666.99 569.22 652.32 569.22 L 652.49 566.87 C 660.19 568.63 669.12 563.33 669.34 555.01 C 669.47 519.68 669.35 484.34 669.39 449.01 C 669.58 437.88 669.09 426.75 667.49 415.73 Z" />
<path fill="#ffffff" opacity="1.00" d=" M 966.54 416.12 C 967.01 416.15 967.95 416.19 968.42 416.22 C 987.37 461.97 1006.39 507.69 1025.38 553.43 C 1028.61 561.67 1036.93 567.51 1045.86 567.24 L 1045.82 569.24 C 1029.80 569.23 1013.78 569.25 997.77 569.23 C 996.88 566.72 999.81 566.96 1001.28 566.85 C 1004.97 566.79 1007.70 563.55 1008.58 560.21 C 1009.15 557.23 1008.22 554.25 1007.17 551.50 C 1002.87 540.07 998.59 528.64 994.33 517.19 C 975.16 517.18 955.99 517.19 936.82 517.19 C 932.10 529.41 927.25 541.59 922.59 553.84 C 921.21 557.20 921.34 561.27 923.91 564.05 C 925.85 566.92 929.54 566.98 932.64 567.24 L 932.61 569.24 C 918.30 569.24 903.99 569.23 889.69 569.25 C 888.57 566.53 891.81 567.05 893.27 566.86 C 901.22 566.22 907.69 559.94 910.68 552.86 C 925.91 516.42 941.09 479.96 956.31 443.52 C 959.88 434.46 964.76 425.79 966.54 416.12 M 939.38 510.58 C 956.83 510.65 974.28 510.65 991.73 510.58 C 983.12 487.76 974.85 464.81 966.15 442.02 C 957.24 464.88 948.40 487.76 939.38 510.58 Z" />
<path fill="#ffffff" opacity="1.00" d=" M 359.62 419.14 C 375.18 419.15 390.73 419.14 406.29 419.15 C 406.29 419.67 406.31 420.72 406.31 421.25 C 403.58 421.34 400.71 421.14 398.15 422.30 C 393.13 424.29 389.88 429.65 389.82 434.97 C 389.79 477.47 389.84 519.97 389.80 562.46 C 400.21 562.55 410.62 562.50 421.02 562.49 C 429.00 562.48 437.43 560.95 443.83 555.88 C 449.90 550.93 454.05 544.03 457.11 536.91 C 457.67 535.59 458.40 533.45 460.42 534.49 C 456.17 546.02 452.14 557.63 448.02 569.21 C 418.54 569.24 389.07 569.19 359.61 569.24 L 359.52 567.47 C 361.99 566.58 364.77 567.23 367.21 566.17 C 372.37 564.09 376.21 558.72 375.88 553.08 C 376.31 543.05 375.80 533.03 375.99 523.00 C 375.82 519.67 375.85 516.34 375.96 513.02 C 375.98 494.31 375.84 475.60 376.03 456.90 C 375.50 448.60 376.71 440.25 375.61 431.97 C 374.10 424.83 366.68 420.24 359.59 421.25 C 359.60 420.72 359.61 419.67 359.62 419.14 Z" />
<path fill="#ffffff" opacity="1.00" d=" M 832.79 419.19 C 848.26 419.11 863.74 419.12 879.21 419.19 C 879.21 419.70 879.20 420.73 879.20 421.24 C 871.36 420.06 863.12 425.85 862.77 434.00 C 862.66 473.66 862.76 513.32 862.72 552.98 C 862.35 559.92 868.25 566.68 875.25 566.90 C 876.79 567.03 880.17 566.40 879.26 569.21 C 863.67 569.25 848.07 569.18 832.48 569.24 L 832.36 567.42 C 835.13 566.67 838.20 567.22 840.82 565.84 C 845.66 563.56 849.07 558.35 848.82 552.95 C 848.80 513.27 848.90 473.59 848.77 433.92 C 848.54 425.80 840.14 420.03 832.39 421.26 C 832.49 420.74 832.69 419.70 832.79 419.19 Z" />
<path fill="#ffffff" opacity="1.00" d=" M 1056.10 419.16 C 1071.52 419.16 1086.95 419.08 1102.37 419.19 C 1102.51 419.69 1102.80 420.69 1102.94 421.20 C 1100.12 421.38 1097.15 421.13 1094.51 422.30 C 1089.64 424.43 1086.20 429.60 1086.32 434.95 C 1086.30 477.47 1086.33 519.99 1086.30 562.51 C 1096.85 562.49 1107.41 562.53 1117.96 562.49 C 1125.66 562.41 1133.79 560.90 1140.01 556.06 C 1146.94 550.51 1151.31 542.52 1154.66 534.45 C 1155.24 534.46 1156.41 534.49 1157.00 534.50 L 1157.00 536.61 L 1156.70 534.67 C 1152.60 546.20 1148.54 557.73 1144.39 569.23 C 1114.91 569.19 1085.42 569.25 1055.93 569.20 L 1055.91 567.29 C 1058.92 566.97 1062.14 567.05 1064.89 565.60 C 1069.40 563.14 1072.58 558.19 1072.41 552.99 C 1072.43 514.01 1072.40 475.03 1072.43 436.05 C 1072.67 431.45 1070.58 426.84 1066.92 424.04 C 1063.88 421.50 1059.82 421.19 1056.04 421.21 C 1056.06 420.70 1056.09 419.67 1056.10 419.16 Z" />
<path fill="#ffffff" opacity="1.00" d=" M 624.74 627.06 C 631.61 625.23 639.28 625.91 645.53 629.40 C 649.08 631.06 647.73 635.61 647.29 638.66 C 643.47 637.23 640.08 634.72 636.02 633.96 C 632.00 633.10 627.40 633.39 624.08 636.03 C 620.98 638.58 620.39 643.29 621.86 646.86 C 624.11 651.48 629.17 653.51 633.53 655.62 C 639.78 658.54 646.88 661.56 650.07 668.15 C 653.25 675.31 651.68 684.56 645.84 689.94 C 641.75 693.80 636.08 695.23 630.66 696.00 L 627.23 696.00 C 621.89 695.30 616.32 694.14 611.88 690.93 C 609.37 688.81 610.46 685.13 610.71 682.31 C 613.86 682.51 616.25 684.82 619.10 685.94 C 624.78 688.35 631.68 689.20 637.25 686.03 C 642.07 683.42 643.74 676.59 641.03 671.93 C 638.63 668.16 634.40 666.23 630.50 664.41 C 624.66 661.69 618.29 658.98 614.61 653.39 C 611.73 649.28 611.66 643.95 612.45 639.18 C 613.70 633.13 618.91 628.60 624.74 627.06 Z" />
<path fill="#ffffff" opacity="1.00" d=" M 197.84 629.92 C 198.12 626.31 202.53 627.15 205.02 627.08 C 213.67 627.44 223.09 625.74 230.94 630.33 C 240.69 635.86 241.40 651.69 232.49 658.32 C 230.54 659.89 228.22 660.89 225.94 661.89 C 233.39 665.89 235.22 674.78 238.43 681.89 C 239.82 686.10 242.57 690.05 242.55 694.60 C 239.65 695.26 236.64 695.35 233.76 694.60 C 230.35 687.14 228.13 679.19 224.43 671.87 C 222.77 668.50 219.78 665.65 216.02 664.91 C 212.96 664.36 209.83 664.64 206.74 664.60 C 206.75 674.48 206.74 684.37 206.75 694.25 C 203.89 695.43 200.72 695.39 197.82 694.38 C 197.76 672.89 197.73 651.40 197.84 629.92 M 206.74 634.50 C 206.75 642.09 206.74 649.70 206.75 657.30 C 212.35 657.05 218.37 658.20 223.58 655.56 C 231.21 652.02 231.15 638.92 223.23 635.78 C 217.98 633.73 212.23 634.74 206.74 634.50 Z" />
<path fill="#ffffff" opacity="1.00" d=" M 276.82 630.91 C 276.68 629.04 277.87 627.02 279.93 627.15 C 290.32 627.02 300.72 627.11 311.11 627.10 C 315.11 626.56 313.81 632.05 313.28 634.43 C 304.13 634.67 294.96 634.45 285.80 634.55 C 285.81 641.61 285.81 648.67 285.81 655.74 C 293.62 655.77 301.43 655.74 309.25 655.75 C 310.30 657.89 311.34 662.32 308.25 663.09 C 300.77 663.23 293.29 663.07 285.80 663.16 C 285.81 671.20 285.80 679.24 285.81 687.28 C 295.06 687.34 304.32 687.19 313.57 687.36 C 314.61 689.69 314.58 692.33 313.57 694.68 C 302.40 694.82 291.21 694.76 280.03 694.71 C 278.00 694.88 276.68 692.86 276.82 691.01 C 276.78 670.97 276.79 650.94 276.82 630.91 Z" />
<path fill="#ffffff" opacity="1.00" d=" M 364.88 628.74 C 365.68 626.25 368.91 626.81 370.96 626.67 C 373.00 626.75 376.23 626.38 376.91 628.92 C 384.29 649.30 391.53 669.74 398.91 690.12 C 399.46 691.55 399.77 693.03 399.85 694.57 C 396.88 695.40 393.79 695.29 390.81 694.65 C 388.52 688.92 386.65 683.03 384.63 677.19 C 375.27 676.75 365.86 676.75 356.50 677.11 C 354.52 682.82 352.83 688.65 350.56 694.25 C 347.84 695.74 344.55 695.26 341.72 694.39 C 342.29 690.96 343.74 687.78 344.85 684.51 C 351.54 665.93 358.15 647.31 364.88 628.74 M 358.81 669.72 C 366.59 669.76 374.38 669.79 382.17 669.71 C 378.07 658.56 374.54 647.21 370.28 636.13 C 366.61 647.38 362.68 658.54 358.81 669.72 Z" />
<path fill="#ffffff" opacity="1.00" d=" M 431.82 627.69 C 434.64 626.31 438.09 626.24 440.89 627.71 C 440.75 647.43 440.86 667.15 440.83 686.87 C 448.92 686.92 457.02 686.76 465.11 686.93 C 467.71 688.17 467.03 692.50 465.84 694.60 C 455.57 694.93 445.26 694.71 434.98 694.71 C 432.98 694.85 431.72 692.81 431.86 691.01 C 431.79 669.90 431.87 648.79 431.82 627.69 Z" />
<path fill="#ffffff" opacity="1.00" d=" M 543.39 630.08 C 543.18 628.14 545.17 626.92 546.92 627.11 C 556.96 627.05 567.00 627.12 577.03 627.08 C 581.33 626.16 580.81 632.14 579.41 634.54 C 570.38 634.51 561.34 634.56 552.31 634.51 C 552.26 641.59 552.30 648.67 552.28 655.76 C 559.94 655.80 567.59 655.65 575.25 655.82 C 577.16 657.33 577.34 661.83 575.07 663.07 C 567.48 663.25 559.87 663.07 552.28 663.15 C 552.35 671.21 552.18 679.28 552.37 687.34 C 561.48 687.33 570.62 687.09 579.72 687.45 C 581.23 689.24 581.24 692.83 579.69 694.60 C 570.13 694.98 560.54 694.63 550.98 694.76 C 548.95 694.68 546.85 695.01 544.90 694.40 C 542.89 693.34 543.42 690.89 543.32 689.05 C 543.39 669.39 543.25 649.73 543.39 630.08 Z" />
<path fill="#ffffff" opacity="1.00" d=" M 678.12 627.19 C 694.14 626.92 710.19 627.21 726.22 627.05 C 727.47 629.29 727.68 632.22 726.37 634.49 C 719.77 634.97 713.12 634.55 706.51 634.69 C 706.39 654.64 706.76 674.60 706.32 694.53 C 703.47 695.29 700.52 695.30 697.68 694.53 C 697.25 674.59 697.62 654.63 697.50 634.69 C 691.02 634.61 684.52 634.87 678.05 634.57 C 676.20 632.99 676.21 628.68 678.12 627.19 Z" />
<path fill="#ffffff" opacity="1.00" d=" M 765.68 628.84 C 765.97 627.33 767.62 626.81 768.97 626.76 C 771.75 626.60 774.68 626.43 777.30 627.62 C 783.42 644.58 789.50 661.57 795.58 678.55 C 797.23 683.89 799.91 688.96 800.76 694.52 C 797.81 695.49 794.67 695.24 791.68 694.66 C 789.31 688.82 787.50 682.78 785.28 676.88 C 775.93 677.16 766.53 676.47 757.22 677.25 C 755.33 682.98 753.68 688.84 751.29 694.37 C 748.53 695.63 745.35 695.30 742.56 694.34 C 743.27 690.50 744.90 686.93 746.16 683.25 C 752.66 665.12 759.15 646.97 765.68 628.84 M 771.13 636.06 C 767.52 647.36 763.45 658.50 759.69 669.75 C 767.45 669.74 775.21 669.78 782.98 669.73 C 779.00 658.52 775.31 647.19 771.13 636.06 Z" />
<path fill="#ffffff" opacity="1.00" d=" M 816.54 628.43 C 816.69 626.65 818.77 627.21 819.98 627.07 C 834.68 627.12 849.38 627.07 864.08 627.10 C 867.40 626.71 866.60 631.10 866.40 633.16 C 866.43 634.96 864.22 634.63 863.08 634.71 C 857.34 634.69 851.61 634.68 845.88 634.70 C 845.87 654.57 845.88 674.44 845.87 694.30 C 842.98 695.44 839.76 695.43 836.88 694.29 C 836.83 674.42 836.87 654.56 836.86 634.70 C 830.90 634.67 824.95 634.72 818.99 634.69 C 815.52 635.20 816.12 630.59 816.54 628.43 Z" />
<path fill="#ffffff" opacity="1.00" d=" M 897.60 631.00 C 897.21 628.97 898.77 626.92 900.91 627.12 C 911.88 627.22 922.91 626.75 933.84 627.36 C 934.99 629.47 935.59 634.93 931.93 634.54 C 923.46 634.54 915.00 634.53 906.53 634.53 C 906.53 641.59 906.57 648.66 906.51 655.72 C 914.13 655.83 921.74 655.66 929.36 655.79 C 931.69 656.91 930.76 660.28 930.50 662.35 C 930.17 662.53 929.51 662.90 929.18 663.08 C 921.64 663.23 914.09 663.10 906.55 663.13 C 906.53 671.18 906.54 679.24 906.54 687.29 C 914.71 687.27 922.87 687.30 931.04 687.27 C 932.15 687.51 934.08 686.71 934.58 688.20 C 935.31 690.21 935.48 693.04 933.91 694.64 C 922.96 694.90 911.98 694.70 901.03 694.74 C 898.98 694.93 897.24 693.05 897.61 691.03 C 897.57 671.02 897.59 651.01 897.60 631.00 Z" />
</g>
</svg>
